<?xml version="1.0" encoding="utf-8"?>
<!-- Generator: Adobe Illustrator 27.2.0, SVG Export Plug-In . SVG Version: 6.00 Build 0)  -->
<svg version="1.1" id="Calque_1" xmlns="http://www.w3.org/2000/svg" xmlns:xlink="http://www.w3.org/1999/xlink" x="0px" y="0px"
	 viewBox="0 0 124 124" style="enable-background:new 0 0 124 124;" xml:space="preserve">
<style type="text/css">
	.st0{fill-rule:evenodd;clip-rule:evenodd;fill:#75A071;}
	.st1{fill-rule:evenodd;clip-rule:evenodd;fill:#C2CA9A;}
</style>
<g>
	<g>
		<path class="st0" d="M61.2,8.8c0.5,1.2,1.2,2.3,2,3.2c0.8,0.9,1.7,1.5,2.7,2L65.5,15c-1.2-0.6-2.1-1.4-3.1-2.3
			c-0.9-0.9-1.5-2.1-2.1-3.5L61.2,8.8z"/>
		<path class="st0" d="M65.2,14c16.2-4.3,27.5,4.3,28.7,21.7c0,0.2,0,0.3-0.2,0.5c-0.2,0.2-0.3,0.2-0.5,0C83,31,67.2,29.4,65,14.5
			C64.9,14.2,65,14,65.2,14z"/>
		<path class="st0" d="M61.2,6c1.1,6.4,1.5,13,1.1,19.4c-1.1,0-2-0.2-3.1-0.2c0.5-6.3,0-12.5-1.1-18.8C59.1,5.6,60.1,5.5,61.2,6z"/>
		<path class="st0" d="M60.5,118.5c-18,0-32.8-15.7-32.8-35.1c0-18.5,11.3-38,20.9-53.1c2.7-4.3,7.2-6.4,11.7-6.4s9.2,2.1,11.9,6.4
			C82,45.5,93.1,65,93.1,83.5C93.1,102.7,78.5,118.5,60.5,118.5z"/>
		<path class="st0" d="M60.5,119.8c-9.5,0-18-4.1-24.1-10.7c-6.1-6.6-9.9-15.7-9.9-25.8c0-9.5,2.9-19.1,7-28.4
			c4.1-9.2,9.3-17.9,14.2-25.5c1.4-2.3,3.4-4,5.5-5.2c2.3-1.2,4.9-1.8,7.3-1.8c2.6,0,5.2,0.6,7.5,1.8c2.1,1.2,4.1,2.9,5.5,5.2
			c4.9,7.6,10.1,16.3,14.2,25.5c4.1,9.3,7,18.9,7,28.4c0,10.1-3.8,19.2-9.9,25.8C78.3,115.8,69.8,119.8,60.5,119.8L60.5,119.8z
			 M38.2,107.3c5.6,6.1,13.6,9.9,22.1,9.9c8.7,0,16.5-3.8,22.1-9.9c5.6-6.1,9.2-14.6,9.2-24c0-9-2.7-18.3-6.7-27.3
			c-4-9-9.2-17.5-14-25.2c-1.2-1.8-2.7-3.2-4.6-4.3c-1.8-1.1-4-1.5-6.1-1.5s-4.3,0.5-6.1,1.5c-1.8,0.9-3.4,2.3-4.6,4.1
			c-4.9,7.5-10.1,16-14,25.2c-4,9-6.7,18.3-6.7,27.3C29,92.8,32.5,101.2,38.2,107.3z"/>
		<path class="st1" d="M60.5,100.8c-8.7,0-15.9-6.7-15.9-15s7-19.7,15.9-19.7c8.7,0,15.9,11.3,15.9,19.7
			C76.2,94.1,69.2,100.8,60.5,100.8z"/>
	</g>
</g>
</svg>
